#!OML:ASF F:\VICON\USERDATA\INSTALL\rory3\rory3.ASF
:FULLY-SPECIFIED
:DEGREES
1
root -0.4299907118473016 18.192492916470307 -35.88878265843085 7.924996608959365 -6.283864730023746 1.6473668283852256
lfemur 15.85738236740022 -4.321440710334292 -31.26748529320502
ltibia 33.78570824406489
lfoot 29.740886482310277 -23.22488354441536
ltoes -13.245095605719237
rfemur -40.99518868093562 3.8734165537282945 22.490509753374603
rtibia 26.429811498225597
rfoot -1.5824167165732272 -2.147948603485755
rtoes -20.592885503582355
lowerback 13.7405052882175 -0.9074462184044871 -3.289376222309568
upperback -1.152566228230907 -1.6373959623578624 1.3591706899759781
thorax -8.841103476154275 -0.5939071449924787 3.668144955278498
lowerneck -18.28860568120817 -1.5193279771294357 -1.8711475077225561
upperneck 13.183194510973214 -1.7164273851191814 0.8344473702285353
head 7.0535084216697115 -0.8419897718622866 0.3827332110398082
lclavicle 1.1245392280272824e-15 -1.476601622067231e-15
lhumerus -41.17330667713364 -13.963397676838445 94.32490985440359
lradius 122.4529861576678
lwrist 37.41239202736048
lhand -24.880724129191375 -0.5495243371485442
lfingers 7.125019999999998
lthumb 1.6267358675057277 29.42400242985757
rclavicle 1.1245392280272824e-15 -1.476601622067231e-15
rhumerus -67.26167897943161 5.147373801569809 -90.97462007900516
rradius 105.25800626059986
rwrist -13.459301074983268
rhand -21.74608502708357 41.11039124331941
rfingers 7.125019999999998
rthumb 4.653924976600424 11.181491425494519
2
root -0.42608684160255667 18.16969327400419 -35.34908287524725 7.709077789180931 -5.642776073438076 1.8514560482312947
lfemur 15.145682749078809 -4.859909357463779 -31.23938533528606
ltibia 37.61450684410464
lfoot 28.83128695573673 -23.523683169614575
ltoes -13.922094969918138
rfemur -40.6295888591011 2.932898335339007 22.727309396447335
rtibia 25.034711956318155
rfoot -1.9579864886936407 -2.763707504698882
rtoes -22.626284231204185
lowerback 13.713605399298354 -1.4964318127633212 -3.5827453688668767
upperback -1.4089034546207648 -2.433121712786923 1.8150271664846553
thorax -9.005902025769876 -0.9417905665776056 4.497830938733935
lowerneck -16.259214986804057 -1.290149606506462 -2.9291375113834106
upperneck 12.176198585873495 -1.212519824482123 0.926291878083878
head 6.388737406853444 -0.6464488774498114 0.6494969706932123
lclavicle 1.1245392758552061e-15 -1.4766016413081788e-15
lhumerus -42.29950584386415 -12.407400927758014 94.89190780315936
lradius 121.7139870397007
lwrist 37.58539185189764
lhand -25.109123317926276 -0.36400696330869564
lfingers 7.125019999999998
lthumb 1.4061966787772793 29.611101798753303
rclavicle 1.1245392758552061e-15 -1.4766016413081788e-15
rhumerus -67.32417890370989 6.127761625399839 -90.4869212715503
rradius 104.93200660831235
rwrist -13.48040102694317
rhand -21.81908467960807 41.02179142487502
rfingers 7.125019999999998
rthumb 4.583485324025249 11.091391610565507
3
root -0.41936006518442004 18.14699362996994 -34.80598309342928 7.517528836195769 -4.750207943832748 1.767676368488512
lfemur 14.144383286067512 -5.413567966429385 -30.74258607926705
ltibia 41.79820531437891
lfoot 30.367686156075045 -23.544683143273133
ltoes -8.298510251283968
rfemur -40.377788981809104 1.9705301583397956 23.256008599540912
rtibia 24.567412109759807
rfoot -1.9452764964055285 -3.7476957488275953
rtoes -23.335483787429865
lowerback 13.459306449404686 -1.7050998976319491 -2.570798312730732
upperback -0.7768302937543338 -2.5670109977516002 1.3877204693036727
thorax -8.219578946162864 -1.0971195223284174 3.4554059851567493
lowerneck -17.881407548380064 -1.6522070324064346 -2.253380283404567
upperneck 12.40629765475676 -1.8187068899949677 0.9277188704374106
head 6.738532678947566 -0.9017461284048713 0.46787785762204004
lclavicle 1.1245392286146591e-15 -1.4766016605491609e-15
lhumerus -41.37650652678704 -13.443598762846152 94.29710995497605
lradius 120.43398856744379
lwrist 37.91689151567835
lhand -25.93182039573809 -0.7375377025638981
lfingers 7.125019999999998
lthumb 0.6116126017201813 29.24130304612026
rclavicle 1.1245392286146591e-15 -1.4766016605491609e-15
rhumerus -65.36948127191962 4.541875145597115 -90.3693215591109
rradius 104.28900729413793
rwrist -13.789400323417555
rhand -20.19709240022818 40.317892867278985
rfingers 7.125019999999998
rthumb 6.1495275999388515 10.427192974873513
4
root -0.416755151765475 18.112494170975157 -34.266283310245775 7.15735080494438 -4.531158402855516 1.6125669614116291
lfemur 13.149283819731277 -5.139008656243355 -30.245086824296322
ltibia 45.80840384809156
lfoot 31.86358537749265 -23.82128279631901
ltoes -6.962701505803109
rfemur -39.77868927376442 1.4156312094772336 23.918807600506362
rtibia 24.29001220084635
rfoot -1.4132568192121773 -4.330084709587475
rtoes -22.99998399736541
lowerback 13.900204628752377 -1.3737329388792867 -1.9559901012745569
upperback -0.18557169126779682 -2.0604437030726976 1.0163233399759786
thorax -7.903001732344253 -0.8984671367474468 2.610610074849106
lowerneck -20.525095425977447 -2.109063784316798 -1.2690288879511822
upperneck 13.256594213954665 -2.621703002776138 0.7285879374715276
head 7.4528830236392665 -1.2453024289850572 0.1268462784936667
lclavicle 1.1245391053430294e-15 -1.476601613133943e-15
lhumerus -40.39590725232787 -14.996395518612275 94.00951099543082
lradius 118.98399029809028
lwrist 38.00129143007684
lhand -26.52001830648189 -0.8430413464669146
lfingers 7.125019999999998
lthumb 0.04348899160965214 29.13670339894499
rclavicle 1.1245391053430294e-15 -1.476601613133943e-15
rhumerus -63.503583532544056 2.399779900412751 -90.09972221834849
rradius 103.78900782743932
rwrist -13.75320040583706
rhand -18.95569830921572 40.09729331932376
rfingers 7.125019999999998
rthumb 7.347931689129885 10.24489334932903
5
root -0.41373025230585564 18.06289494876816 -33.73248352469176 6.82078264464045 -4.800767837883475 1.195198556849165
lfemur 11.940784467839482 -4.384750551272069 -29.47578797635869
ltibia 49.990702318877695
lfoot 34.72218388965558 -23.293183458743016
ltoes -2.9317852914210523
rfemur -39.247989532386924 1.0442719129380358 24.964306024630325
rtibia 24.652212081915174
rfoot -0.6173913021091342 -4.578984265440311
rtoes -22.149284529681744
lowerback 14.28660303315235 -1.1154353095048382 -1.6060211193723288
upperback 0.04670619544799637 -1.657675854053164 1.099842694422529
thorax -7.900571753730382 -0.7172415218166945 2.427560960997522
lowerneck -21.380591503174017 -2.1422135486337197 -0.9455180024072354
upperneck 13.276494133427835 -2.7235725096366843 0.5813427264783453
head 7.5951211011197355 -1.2881019681189247 0.005133403182162044
lclavicle 1.1245391424771985e-15 -1.4766016344364055e-15
lhumerus -40.276307340819294 -15.217295057090343 94.1637104375792
lradius 117.55799200009156
lwrist 38.0398913909273
lhand -26.39011876788002 -0.010033858042361454
lfingers 7.125019999999998
lthumb 0.1689362301416466 29.969600589502207
rclavicle 1.1245391424771985e-15 -1.4766016344364055e-15
rhumerus -62.463084793158046 1.6175516367273097 -89.82562288858966
rradius 103.44500819435066
rwrist -13.30570142469697
rhand -19.088297678047887 40.17529315948926
rfingers 7.125019999999998
rthumb 7.21987232074861 10.318493198150069
6
root -0.4087484178900458 17.992796048028033 -33.206083736164985 6.506244363920226 -5.279366834969536 0.7160073886111529
lfemur 10.588685192959215 -3.5010027716359167 -28.64498922052014
ltibia 54.3229007348545
lfoot 36.95378272815791 -22.104384949918202
ltoes -1.544336594437607
rfemur -38.91348969539652 0.33449425746007666 26.292704022340786
rtibia 25.75861171861957
rfoot 0.005534019926574096 -3.845005575183712
rtoes -22.696084187527536
lowerback 14.231203261921088 -1.2322442374461036 -1.5142213864277088
upperback -0.1369822170137477 -1.756335327162546 1.6042987952858798
thorax -8.049600442135802 -0.7539550386384217 2.9383984880116834
lowerneck -19.153501715302045 -1.845465658406075 -1.8128886088338096
upperneck 12.221598402159026 -2.130205382063885 0.7267219474703439
head 6.886780675196718 -1.0438845978555291 0.28841571026479335
lclavicle 1.1245390927690784e-15 -1.476601628251827e-15
lhumerus -41.41710649674731 -13.50679863080366 94.7193084275769
lradius 116.1529936770283
lwrist 37.79399164032797
lhand -26.13321968037564 0.19001816673998528
lfingers 7.125019999999998
lthumb 0.41705231742620885 30.169399915559758
rclavicle 1.1245390927690784e-15 -1.476601628251827e-15
rhumerus -62.36198491564539 2.647539350460324 -89.58302348180568
rradius 103.00500866365589
rwrist -12.994702132776151
rhand -19.410596143919733 40.329492843508724
rfingers 7.125019999999998
rthumb 6.908763855208251 10.46229290277594
7
root -0.4083514310849332 17.90139748129982 -32.68958394366105 6.040546909442568 -5.972105383321817 0.2282272532054428
lfemur 9.258705906216175 -2.2967657972098383 -27.688590652773375
ltibia 58.80229909700916
lfoot 37.84008226685866 -20.87558649126755
ltoes -2.5781256235590133
rfemur -38.63418983150591 -0.0952505284802947 27.505302194595906
rtibia 27.62841110465562
rfoot 0.3931870847153762 -2.3683382102129986
rtoes -21.23238510342207
lowerback 14.235803242925854 -1.0305660884246652 -1.149682446911063
upperback 0.2709473691223224 -1.428517077874906 1.6272186181296893
thorax -7.639764049086907 -0.6194848083706463 2.6788097446916455
lowerneck -19.026402298105452 -1.8892753469347143 -1.9051568649351571
upperneck 12.028799182338544 -2.2164949643451877 1.030689318674906
head 6.808761729717064 -1.0620344024181387 0.3941950288483436
lclavicle 1.124539104990485e-15 -1.4766016406210014e-15
lhumerus -41.20990665005352 -13.068599546326125 94.40970954762138
lradius 114.39199577886859
lwrist 37.55379188394749
lhand -26.179519515920422 0.35571560747627845
lfingers 7.125019999999998
lthumb 0.3723294819428302 30.335099356639518
rclavicle 1.124539104990485e-15 -1.4766016406210014e-15
rhumerus -60.89348669480124 2.432029828827492 -89.756323058045
rradius 102.33200938147954
rwrist -12.899602349298108
rhand -19.50009571790525 40.5247924433077
rfingers 7.125019999999998
rthumb 6.822384281252489 10.65469250757441
8
root -0.40676748373153143 17.793299176449494 -32.171884151639304 5.485219944883665 -6.460384360123299 -0.14050733726522657
lfemur 7.804536686075174 -1.0753688658971343 -26.663392188057834
ltibia 63.34139743733513
lfoot 37.62038238120764 -19.697287969272036
ltoes -3.48261477411186
rfemur -38.39278994914579 -0.4337812872061426 28.37180088852553
rtibia 30.156510274533336
rfoot 0.6619959216137441 0.09470279462982312
rtoes -13.565689900777077
lowerback 14.320902891513942 -0.7936992623607966 -0.23777109976018074
upperback 0.9950285344472981 -1.015029286105206 1.054553044483782
thorax -6.958350046179973 -0.47162575431015125 1.4567656606581907
lowerneck -20.481995623607876 -2.04551423613157 -1.0788924815882235
upperneck 12.548097080952529 -2.699912624171669 1.3962073600629799
head 7.21999617138655 -1.2100628084458651 0.310900352859882
lclavicle 1.1245390390653309e-15 -1.4766016653594195e-15
lhumerus -40.284107335048105 -13.790098038910656 93.38501325469366
lradius 112.57299794993473
lwrist 37.62449181224098
lhand -26.50361836473384 0.308708766134253
lfingers 7.125019999999998
lthumb 0.05932133336907075 30.2883995141626
rclavicle 1.1245390390653309e-15 -1.4766016653594195e-15
rhumerus -58.651589410967105 1.1974625692003862 -90.62992092188053
rradius 101.48701028275885
rwrist -12.637102946953368
rhand -19.828294155693463 40.90289166852018
rfingers 7.125019999999998
rthumb 6.505585843776401 11.022891751268759
